<?xml version="1.0" encoding="utf-8"?>
<!-- Generator: Adobe Illustrator 24.0.1, SVG Export Plug-In . SVG Version: 6.00 Build 0)  -->
<svg version="1.1" id="Layer_1" xmlns="http://www.w3.org/2000/svg" xmlns:xlink="http://www.w3.org/1999/xlink" x="0px" y="0px"
	 viewBox="0 100 500 300" style="enable-background:new 0 100 500 400;" xml:space="preserve">
<style type="text/css">
	.st0{fill:#F2EBEB;}
	.st1{fill:#000001;}
	.st2{fill:#3299F5;}
</style>
<g id="street">
	<path class="st0" d="M396.7,338.2l-4.2-40.9c0,0-16.1,0.8-17.8-9s-3.7-40.3,0-41.7s10.4-4.5,12.4,2.5c2,7,1.1,30.2,2.5,30.7
		s5.6,0.6,5.6,0.6s-1.7-49.3,4.5-53.6s18.9-9.3,20,0s1.4,62.3,2.8,64.1s8.9,3.8,8.8-5.4s-0.6-25.4,5.6-25.4s7.6,34.1,3.4,43.9
		s-17.8,1.1-17.8,1.1v30.9L396.7,338.2z"/>
	<rect x="401.2" y="296.6" class="st0" width="2" height="2.6"/>
	<rect x="413.2" y="280.8" class="st0" width="2" height="3.2"/>
	<rect x="407.6" y="246.6" class="st0" width="2" height="7.8"/>
	<rect x="380.3" y="262.9" class="st0" width="2" height="5.5"/>
	<rect x="381" y="284.6" transform="matrix(0.953 -0.303 0.303 0.953 -68.9453 129.2501)" class="st0" width="2" height="4.4"/>
	<rect x="389.2" y="286.8" class="st0" width="2" height="4.2"/>
	<rect x="437.2" y="278.3" class="st0" width="2" height="5.7"/>
	<rect x="403.5" y="269.7" class="st0" width="2" height="3.6"/>
	<rect x="408.9" y="311.7" class="st0" width="2" height="2.9"/>
	<path class="st0" d="M72.8,338.1l-3.2-31c0,0-12.2,0.6-13.5-6.9s-2.8-30.6,0-31.6s7.9-3.4,9.4,1.9s0.8,22.9,1.9,23.3
		c1.4,0.3,2.8,0.5,4.3,0.4c0,0-1.3-37.4,3.4-40.6s14.3-7.1,15.2,0c0.8,7,1.1,47.2,2.1,48.6s6.8,2.9,6.7-4.1s-0.5-19.3,4.2-19.3
		s5.8,25.9,2.6,33.3s-13.5,0.9-13.5,0.9v23.4L72.8,338.1z"/>
	<rect x="76.2" y="306.5" class="st0" width="1.5" height="2"/>
	<rect x="85.3" y="294.5" class="st0" width="1.5" height="2.4"/>
	<rect x="81.1" y="268.6" class="st0" width="1.5" height="5.9"/>
	<rect x="60.4" y="281" class="st0" width="1.5" height="4.2"/>
	<rect x="60.9" y="297.4" transform="matrix(0.953 -0.303 0.303 0.953 -87.7316 32.7517)" class="st0" width="1.5" height="3.3"/>
	<rect x="67.2" y="299.1" class="st0" width="1.5" height="3.2"/>
	<rect x="103.6" y="292.6" class="st0" width="1.5" height="4.3"/>
	<rect x="77.9" y="286.1" class="st0" width="1.5" height="2.7"/>
	<rect x="82.1" y="318" class="st0" width="1.5" height="2.2"/>
	<path class="st0" d="M43.7,338.1c16.6-0.3,33.3-0.5,49.9-0.7l49.9-0.4c16.6-0.2,33.2-0.1,49.9-0.2l49.9-0.1l49.9,0.1
		c16.6,0.1,33.2,0,49.9,0.2l49.9,0.4c16.6,0.3,33.3,0.4,49.9,0.8c-16.6,0.3-33.2,0.5-49.9,0.7l-49.9,0.4
		c-16.6,0.2-33.3,0.1-49.9,0.2l-49.9,0.1l-49.9-0.1c-16.6-0.1-33.2,0-49.9-0.2l-49.9-0.4C77,338.6,60.4,338.4,43.7,338.1z"/>
	<path class="st0" d="M57.2,388c16.6-0.3,33.2-0.5,49.9-0.7l49.9-0.4c16.6-0.2,33.3-0.1,49.9-0.2l49.9-0.1l49.9,0.1
		c16.6,0.1,33.2,0,49.9,0.2l49.9,0.4c16.6,0.3,33.2,0.4,49.9,0.8c-16.6,0.3-33.3,0.5-49.9,0.7l-49.9,0.4
		c-16.6,0.2-33.2,0.1-49.9,0.2l-49.9,0.1l-49.9-0.1c-16.6-0.1-33.2,0-49.9-0.2l-49.9-0.4C90.5,388.5,73.8,388.3,57.2,388z"/>
</g>
<g id="speech-bubble">
	<path class="st1" d="M330.9,192.2c0,0-20.5,16.2-13.3,15.7s13.2-6.3,16.8-4.8s44.6,14.6,58.9,3s20.1-59.2-13.2-60.1
		S320,158.7,330.9,192.2z"/>
	<path class="st0" d="M349.3,169.4c3.1-1.7,6.5-3,10-3.9c3.5-0.9,7.1-1.3,10.7-1.3c3.6,0,7.2,0.6,10.7,1.7c3.4,1.1,6.6,2.9,9.4,5.2
		c-3.1-1.6-6.4-2.9-9.8-3.7c-1.7-0.4-3.4-0.7-5.1-0.9c-1.7-0.2-3.4-0.3-5.2-0.3c-3.5,0-7,0.3-10.4,0.8
		C356.1,167.7,352.7,168.5,349.3,169.4z"/>
	<path class="st0" d="M353.5,178c2.4-1.8,5-3.1,7.9-3.9c2.9-0.8,5.8-1.2,8.8-1.1c1.5,0.1,3,0.3,4.4,0.6c1.4,0.4,2.9,0.9,4.2,1.5
		c2.7,1.2,5.1,3,7.1,5.2c-2.4-1.5-5-2.8-7.7-3.7c-1.3-0.5-2.6-0.8-4-1.1c-1.4-0.3-2.8-0.4-4.2-0.5c-2.8-0.1-5.6,0.1-8.4,0.6
		C358.9,176.2,356.1,177,353.5,178z"/>
	<path class="st0" d="M358.4,183.5c1.3-1.6,3.1-2.8,5-3.5c2-0.8,4.1-1.1,6.2-0.9c2.1,0.2,4.1,0.8,6,1.8c0.9,0.5,1.8,1,2.6,1.6
		c0.8,0.6,1.5,1.3,2.2,2.1c-1-0.4-1.9-0.8-2.8-1.2l-1.4-0.5c-0.4-0.2-0.9-0.4-1.4-0.5c-0.5-0.1-0.9-0.3-1.4-0.4
		c-0.5-0.1-0.9-0.2-1.4-0.3C367.5,180.4,362.6,181.1,358.4,183.5L358.4,183.5z"/>
	<path class="st0" d="M365.2,188.9c0.5-0.7,1.2-1.3,1.9-1.8c0.8-0.4,1.6-0.7,2.5-0.8c0.9-0.1,1.9,0.1,2.7,0.5c0.8,0.4,1.5,1.1,1.8,2
		c-0.8-0.2-1.5-0.4-2.3-0.5c-0.7,0-1.4,0-2.1,0C368.4,188.4,366.9,188.7,365.2,188.9z"/>
	<path class="st2" d="M369.8,159.3c0,0-2.4,30.7,0.6,29.4S378.5,152.1,369.8,159.3z"/>
	<path class="st2" d="M369.5,192.4c0,0-3.8,3.3-0.4,3.7S373.1,191.5,369.5,192.4z"/>
	<path class="st2" d="M346.3,129.9c1.2,0.5,2.3,1.2,3.2,2.2c0.9,0.9,1.7,1.9,2.5,2.9c0.7,1,1.4,2.1,2,3.2c0.6,1.1,1.1,2.3,1.4,3.6
		c-1-0.8-1.9-1.7-2.7-2.7c-0.8-0.9-1.6-1.9-2.3-2.9s-1.4-2-2-3.1S347.1,131,346.3,129.9z"/>
	<path class="st2" d="M360.4,123.3c0.4,0.7,0.7,1.4,0.9,2.1c0.2,0.7,0.4,1.5,0.5,2.2c0.3,1.5,0.5,3,0.6,4.5c0.1,1.5,0.2,3,0.1,4.5
		c0,1.5-0.2,3-0.5,4.5c-0.5-1.4-0.8-2.9-1.1-4.4c-0.2-1.5-0.5-2.9-0.6-4.4s-0.2-3-0.2-4.5c0-0.7,0-1.5,0-2.2
		C360.4,124.8,360.4,124,360.4,123.3z"/>
	<path class="st2" d="M369.1,140.3c-0.3-0.8-0.4-1.6-0.5-2.4c0-0.8,0-1.5,0.1-2.3c0.1-0.8,0.3-1.5,0.5-2.2c0.3-0.8,0.6-1.5,1.1-2.2
		c0.3,0.8,0.4,1.6,0.5,2.4c0,0.8,0,1.5-0.1,2.3c-0.1,0.8-0.3,1.5-0.5,2.2C370,138.9,369.6,139.7,369.1,140.3z"/>
</g>
<g id="character">
	<path class="st1" d="M277.4,214.7c0,0-3.4,38.3-2.7,40.3s17.7,4.6,20.2,0s9.6-40.5,6.2-43.1S277.9,209.3,277.4,214.7z"/>
	<path class="st1" d="M224,336.6c0,2.6-0.4,27.8,4,30.4s30.4,0.4,28.9-2.2s-19.8-12.4-19.8-12.4s0.7-19.8,0.7-19.8L224,336.6z"/>
	<path class="st1" d="M193.1,148.2c0,0-17.8,5.3-17.2,10.9s11.5,11.7,11.5,11.7L193.1,148.2z"/>
	<path class="st1" d="M186.6,179.7c0,0-16.8,9-14.8,14.2s14.8,8.5,14.8,8.5S189.2,185.3,186.6,179.7z"/>
	<path class="st1" d="M187,213.5c0,0-14,8.1-13.7,10.8S187,233,187,233S188.7,216.1,187,213.5z"/>
	<path class="st1" d="M187.6,245.8c0,0-13,7.4-12.3,10.1c0.7,2.8,11,10.4,12.1,10.4S190,248.1,187.6,245.8z"/>
	<path class="st1" d="M178.8,298.7c0,0-5.3-16.3-3.6-18.2s11.5-1.9,11.5-1.9S192.7,293.5,178.8,298.7z"/>
	<path class="st1" d="M149.7,301c0,0,3.9-12.6,5.8-12.4s11.4,10.4,10.5,12.1S149.7,301,149.7,301z"/>
	<path class="st1" d="M121.7,300.8c0,0,5.2-12.6,7.8-12.1s8,12.1,8,12.1S125.4,303.6,121.7,300.8z"/>
	<path class="st2" d="M111.1,306.1c0,0,46.7,30.5,76.6,33.8l3.9,30.6c0,0,28.6,0,30-2.4s-17.2-9.5-17.2-13.4s-0.5-13.8-0.5-13.8
		s46.7,10.5,60.5-22.9c13.8-33.4-12.6-113.9-12.6-113.9s28.3-1,39.3-9.5s6.2-19.1,6.2-19.1c8-4.4,13-12.8,12.9-21.9
		c0-15.7-0.5-37.7-8.1-38.6s-79.9,5.2-96.8,17.2s-19.1,41-19.1,57.7s4.3,93.9-2.9,105.9S101.1,294.1,111.1,306.1z"/>
	<path class="st0" d="M167.8,307.5c0,0-3.8,5.2,0,5S171.6,305.9,167.8,307.5z"/>
	<path class="st0" d="M186.5,304.9c0,0-2,3.2,0,3.2S189.1,301,186.5,304.9z"/>
	<path class="st0" d="M198.3,283.7c0,0,1.2,6.1,3.2,2.8s2.4-8.1,0-7.9c-2,0.1-3.6,1.8-3.5,3.9C198,282.9,198.1,283.3,198.3,283.7z"
		/>
	<path class="st0" d="M274.7,180.4c0,0-1.5,9.3-3.9,9.3s-2.9-8.3-2.9-8.3L274.7,180.4z"/>
	<path class="st0" d="M281.6,179.3c0,0,2,7.6,4.2,7s2.4-8.3,2.4-8.3L281.6,179.3z"/>
	<path class="st1" d="M230.1,145.2c1.5-0.6,2.9-1.2,4.3-1.9c1.4-0.6,2.7-1.3,4-2.1c1.2-0.8,2.4-1.7,3.5-2.7c1-1.1,2-2.3,2.8-3.7
		c-0.1,1.7-0.6,3.3-1.6,4.6c-1,1.4-2.2,2.5-3.6,3.4c-1.4,0.9-2.9,1.5-4.5,1.9C233.4,145.2,231.7,145.4,230.1,145.2z"/>
	<path class="st1" d="M240,141.6c-0.1,0.5-1.6,11,3.6,8.5S241.4,135.7,240,141.6z"/>
	<path class="st0" d="M223.8,156.2c0,0-11,6.5-7.9,10.6S223.8,156.2,223.8,156.2z"/>
	<path class="st0" d="M207.2,178c0,0-12.3,8.2-5.8,11.7S209.2,182.7,207.2,178z"/>
	<path class="st1" d="M299.2,126.2c0,0-2,8.2,2.3,5.9S302.2,120,299.2,126.2z"/>
	<path class="st2" d="M240.3,242.6c0,0,31.3,3,34.4,4.7s2.6,4.3,10.2,3.2s3.3-7.9,3.3-7.9s8.6-1.7,2.6-6.6c0,0,3.8-11.6-2.6-10.7
		s-15.1,7.6-15.1,7.6l-31.7-7.7L240.3,242.6z"/>
	<path class="st1" d="M309.6,159.5c-0.5,5.9-3.6,11.3-8.4,14.8c-2.5,1.6-5.2,2.8-8.1,3.5c-2.8,0.8-5.6,1.4-8.4,1.9
		c-5.6,1.1-11.3,1.9-17,2.5s-11.4,1.1-17.1,1.2c5.7-1,11.3-1.9,16.9-2.8c5.6-0.9,11.3-1.8,16.9-2.9c2.8-0.5,5.6-1.1,8.3-1.8
		c2.7-0.6,5.3-1.6,7.7-3c2.3-1.5,4.3-3.4,5.9-5.8C307.8,164.9,309,162.3,309.6,159.5z"/>
	<path class="st1" d="M240.3,242.6c2.8-0.1,5.6,0.1,8.4,0.3s5.6,0.5,8.3,0.9c2.8,0.3,5.5,0.8,8.3,1.3s5.5,1.1,8.2,1.8
		c-2.8,0.1-5.6-0.1-8.4-0.3s-5.6-0.5-8.3-0.9s-5.5-0.8-8.3-1.3S243,243.4,240.3,242.6z"/>
</g>
</svg>
