<svg transform="scale(1)" version="1.1" id="Layer_1" xmlns="http://www.w3.org/2000/svg" xmlns:xlink="http://www.w3.org/1999/xlink" x="0px" y="0px" viewBox="0 100 500 300" xml:space="preserve" class="show_show__wrapper__graphic__5Waiy "><title>React</title><style type="text/css">
	.st0{fill:#F2EBEB;}
	.st1{opacity:0.5;}
	.st2{fill:#3299F5;}
	.st3{fill:#000001;}
	.st4{fill:#EA8383;}
	.st5{fill:#A04040;}
</style><g id="loading"><path class="st0" d="M40.7,378.7c0,0,409.6,5.9,425.1,0s23.6-47.3,0-60.5s-404.4-5.2-425.1,0S6.8,366.1,40.7,378.7z"></path><g class="st1"><path class="st2" d="M280.9,318.8c-23.5-3.6-221.4,3.3-236.5,7.3s-24.8,37.4,0,47.1c0,0,226.2,7,237.6,2.4L280.9,318.8z"></path></g></g><g id="character"><path class="st3" d="M240.8,218c0.9-2.5,2.3-4.9,4.1-6.9c1.8-2.1,4.2-3.7,6.9-4.5c2.8-0.7,5.7-0.4,8.3,0.7c2.6,1.1,4.8,2.8,6.7,4.8
		c3.8,4.1,6.1,9.2,6.7,14.8c0.3,2.7-0.1,5.5-1.1,8.1c-1,2.5-2.6,4.8-4.6,6.5c1.7-2,3-4.3,3.7-6.8c0.7-2.5,0.8-5.1,0.4-7.6
		c-0.4-2.5-1.2-5-2.3-7.3c-1.1-2.3-2.6-4.4-4.3-6.3c-1.7-1.9-3.7-3.4-6-4.5c-2.3-1-4.8-1.4-7.2-0.9c-2.5,0.6-4.7,1.9-6.5,3.6
		C243.7,213.6,242,215.7,240.8,218z"></path><path class="st3" d="M239.6,213.3l44.2,36.1c0,0-3,26-31.4,34.6l-40.7-36.5C211.7,247.5,235.4,214.4,239.6,213.3z"></path><path class="st3" d="M190.1,278l45.9-8.7l13.1,11.8l-58.5,2.9c0,0-8.9,6.9-9.6,7.6s-1.3-20-1.3-20L190.1,278z"></path><path class="st4" d="M182.9,278c0,0,1.5,13.1-1.8,13.6s-4.4-21.9-1.3-20S182.9,278,182.9,278z"></path><path class="st3" d="M181.3,281.3c0,0,0.1,1.7-0.4,1.4S180.2,281,181.3,281.3z"></path><path class="st3" d="M181.1,276.6c0,0,0.2,2.2-0.7,1.3S180.5,276.3,181.1,276.6z"></path><path class="st3" d="M182.2,287.1c0,0-1.2,2.1-1.5,0.4S182.2,287.1,182.2,287.1z"></path><path class="st3" d="M179.2,283.2c0,0,0.8,2-0.1,1.3S178.2,282.3,179.2,283.2z"></path><path class="st3" d="M215.1,243.8c-4.9-0.2-17.8-3.5-19.2-8.7c-0.6-2,0.5-4,3.3-5.8c10.5-6.8,35.5,0.2,36.5,0.5l-0.5,1.9
		c-0.3-0.1-25.2-7.1-34.9-0.8c-1.9,1.2-2.7,2.4-2.4,3.5c1,3.6,12.1,7.1,17.4,7.3L215.1,243.8z"></path><path class="st2" d="M236,228.8c0.3,0.5,3.6,2.5-0.2,3.3s-2.2-2.9,0.5-2.9"></path><g id="water"><path class="st2" d="M153.1,297.5c0,0,1.9,10.8-4.4,8.9S153.1,297.5,153.1,297.5z"></path><path class="st2" d="M148.8,315.3c0,0,3.6,8.8-1.3,7.6S148.8,315.3,148.8,315.3z"></path><path class="st2" d="M170.3,289.8c0,0-0.4,11-5.5,7.5S170.3,289.8,170.3,289.8z"></path><path class="st2" d="M164,307.5c0,0-0.1,11.2-3.6,8.1S164,307.5,164,307.5z"></path></g><path class="st5" d="M277.1,266.2c0,0-6.6,0.7-5.5,3.1s11.8-1.8,18.9-7.5s11.5-15.7,11.5-15.7l39.5-23l-5.5-23.6l-52.2,50
		L277.1,266.2z"></path><path class="st3" d="M451.7,310.7h-23.8c0,0-3.2-2.7,3.2-3.2s11.3-1.2,10.5-3.7s-2.2-8.9-2.2-8.9l-23.9,6.1l0.3-22.4
		c0,0,29.4-3.5,33.8,0S454.9,310.7,451.7,310.7z"></path><path class="st2" d="M394.8,265.9c0,0-8.9-39.8-12.3-40.2s-144.2,69.9-132.7,81.2c11.5,11.3,173.8,3.2,173.8,3.2s0.4-37.8,0-37.8
		S394.8,265.9,394.8,265.9z"></path><path class="st3" d="M331.3,269.3c7.7-0.8,15.5-1.5,23.2-2c7.8-0.6,15.5-1,23.3-1.5l11.6-0.6c2-0.1,3.9-0.2,5.9-0.2
		c2,0,4,0.2,5.9,0.6c7.7,1.5,15.2,3.8,22.4,6.7c-3.8-1-7.5-2.1-11.3-2.9s-7.6-1.7-11.4-2.2c-1.9-0.3-3.8-0.4-5.7-0.4
		c-1.9,0.1-3.9,0.2-5.8,0.4l-11.6,0.7c-7.8,0.4-15.5,0.8-23.3,1S339.1,269.3,331.3,269.3z"></path><g id="character-2"><path class="st3" d="M331.7,248.4c0.3,3.1,58.3-8.6,58.3-8.6s-29.1-102.3-52-78.2c-6.4,6.7-16.5,34.6-13.1,38.1
			s13.2,16.8,13.2,16.8L331.7,248.4z"></path></g><path class="st3" d="M324.9,152.8c-3.5,3.5-16.1,15.6-16.1,15.6s-8.1-14.7-3.1-20.2S324.9,152.8,324.9,152.8z"></path><path class="st4" d="M345.8,180.1c-0.2,1.1-1.2,1.8-2.3,1.7c-0.5-0.1-1-0.4-1.3-0.8c-4.4-6.6-16.9-26.6-21-24
		c-7.7,4.8-18.6-1.2-18.6-1.2s-7.5,2.8-8.6,1.5s1.4-7.7,1.9-13.3s-1-11.5,3.4-13.8s4,6.2,10,8.5c3.7,1.4,6.9-1.5,6.9-1.5
		s-2.9-4.9,4.2-5.4s3.8,10.1,5.2,10.9c2.9,1.6,17.8,16.6,21,19C347.3,162.2,346.4,174.8,345.8,180.1z"></path><path class="st0" d="M309.5,140.8c0,0-8,1.8-7.2,7.9C302.2,148.7,310.5,146.7,309.5,140.8z"></path><path class="st3" d="M309.8,140.6c-1.8,0.8-3.5,1.9-5,3.1c-0.7,0.6-1.4,1.3-1.9,2.1c-0.5,0.8-0.8,1.8-0.8,2.8
		c-0.4-1-0.3-2.1,0.1-3.1c0.4-1,1.1-1.9,1.9-2.5c0.8-0.7,1.7-1.2,2.7-1.6C307.8,140.9,308.8,140.7,309.8,140.6z"></path><path class="st3" d="M303.3,144.4c0,0,2.1-0.6,3,2.6c0,0-4.3,2.6-4.3,1.4C302,148.4,301.9,145.2,303.3,144.4z"></path><path class="st3" d="M311.3,143.3c-0.2,0.1-0.3,0.2-0.5,0.2c-0.1,0-0.2,0.1-0.3,0.1c-0.1,0-0.2,0-0.3-0.1c-0.2-0.1-0.3-0.2-0.4-0.3
		c0.1-0.4,0.4-0.6,0.8-0.6c0.2,0,0.3,0.1,0.5,0.2C311.2,142.9,311.3,143.1,311.3,143.3z"></path><path class="st3" d="M310.1,145.2c-0.3,0.1-0.6,0.2-0.9,0.1c-0.2-0.1-0.3-0.2-0.7-0.5c0.1-0.2,0.2-0.4,0.4-0.4
		c0.4-0.2,0.9,0.1,1.1,0.5C310.1,145,310.1,145.1,310.1,145.2z"></path><path class="st5" d="M313.7,152.3c-1-0.2-2,0.4-2.4,1.4c-0.5,1.7,3.9,2.8,5.3,0.7S313.7,152.3,313.7,152.3z"></path><path class="st3" d="M312.5,150.5c1.3,0.6,2.1,1.9,2,3.3c-0.1,0.7-0.3,1.4-0.7,1.9c-0.2,0.3-0.4,0.5-0.6,0.8
		c-0.2,0.2-0.5,0.4-0.8,0.6c0.1-0.3,0.2-0.6,0.4-0.9c0.1-0.3,0.2-0.6,0.3-0.8c0.2-0.5,0.3-1.1,0.4-1.6c0-0.5,0-1.1-0.2-1.6
		C313,151.5,312.8,151,312.5,150.5z"></path><path class="st3" d="M305.1,138.5c-0.5,0.1-1,0.2-1.4,0.4c-0.4,0.1-0.8,0.3-1.2,0.5c-0.4,0.2-0.7,0.5-1,0.8c-0.4,0.3-0.7,0.6-1.1,1
		c0-0.5,0.2-1,0.5-1.5c0.3-0.5,0.7-0.8,1.1-1.1C303,138,304.2,138,305.1,138.5z"></path><path class="st5" d="M296,132.5c0,0,13.8,10.1,25.7,7.3c0,0-3.5,10.7,1.8,13.7s-0.6,11,2.8,14l33.3-38.4c0,0-13-7.1-20.2-0.4
		c-7.2,6.7-5.8-10-20.5-9.9S296,132.5,296,132.5z"></path><path class="st5" d="M362,126.3c-1.3-0.4-2.5-0.7-3.8-0.9c-1.3-0.2-2.6-0.4-3.9-0.5c-2.6-0.2-5.1,0-7.6,0.7c-2.5,0.7-4.7,2-6.5,3.8
		c-0.9,0.9-1.7,1.9-2.4,3c-0.7,1.1-1.3,2.3-1.8,3.5c0.6-2.6,1.8-5,3.6-7c1.8-2,4.2-3.5,6.8-4.2c2.6-0.7,5.3-0.8,8-0.5
		C357,124.5,359.6,125.2,362,126.3z"></path><path class="st3" d="M296,132.5c1.4,0.9,2.7,1.7,4.2,2.4c1.4,0.8,2.9,1.4,4.3,2.1c2.9,1.3,6,2.1,9.1,2.6c6.4,1.1,12.8-1.6,16.7-6.8
		c-0.8,1.4-1.9,2.6-3,3.8c-1.2,1.1-2.6,2-4.1,2.7c-1.5,0.7-3.1,1.1-4.8,1.3c-1.6,0.2-3.3,0.2-4.9,0c-3.2-0.4-6.4-1.4-9.3-2.9
		C301.2,136.3,298.5,134.5,296,132.5z"></path><polygon class="st3" points="329.8,163.3 339.8,155.5 338,154 	"></polygon><path class="st4" d="M367,193.2c0,0-0.5,29.9-7.4,34.2s-84.4-4.2-84.4-4.2s-5.8,1.1-8.2,1.5s-1.3-3.1-1.3-3.1s-4.2,0.4-3.1-2.9
		c0,0-4.3-2.7-1.5-5.3c1.2-1.1,2.5-2.2,3.8-3.1l-4.3-2.7c0,0,3-2.2,15.2,1c4.8,1.2,65.8,0.7,65.8,0.7l1.8-16.1L367,193.2z"></path></g><g id="plant"><path class="st3" d="M85,345.3c-0.4,0-12.4-4.3-18.7-6s-8.9-4.4-4.9-6c4.8-1.7,10-1.9,15-0.6C80.6,333.9,85,345.3,85,345.3z"></path><path class="st2" d="M87.3,350.7c0,0-10.2-16.7-17-24.2s-8.6-13-3.6-13.5s13.3,7,16.2,15.2S87.3,350.7,87.3,350.7z"></path><path class="st3" d="M70.6,318.7c2.2,2.1,4.3,4.4,6.3,6.8c2,2.4,3.8,4.9,5.4,7.6c0.8,1.3,1.5,2.8,2.1,4.2c1.7,4.3,2.7,8.9,2.9,13.5
		c-1-2.9-1.9-5.8-3-8.6c-0.6-1.4-1.1-2.8-1.7-4.2c-0.6-1.4-1.3-2.7-2.1-4c-1.5-2.6-3.2-5.1-4.9-7.6S72.2,321.3,70.6,318.7z"></path><path class="st2" d="M88.7,349.5c0,0,1.1-7.1,9.2-7.4S100.5,350.6,88.7,349.5z"></path><path class="st2" d="M65.8,286.3l27.9-17.9c0,0,6.2,4.7-4.1,15.2S65,291.3,65.8,286.3z"></path><path class="st3" d="M122.5,338.9c-3.4-4.1-6.6-8.3-9.8-12.6s-6.3-8.6-9.3-12.9s-6-8.7-9-13.1s-5.8-8.9-8.5-13.5
		c3.4,4.1,6.6,8.3,9.8,12.6s6.3,8.6,9.3,12.9s6,8.7,9,13.1S119.8,334.3,122.5,338.9z"></path><path class="st2" d="M87.2,310.1c0,0,8.4-6.4,15.2,0C102.3,310.1,97.2,318.9,87.2,310.1z"></path><path class="st3" d="M84.6,287.6c0,0-2,3,2.5,3.2s2.4-5.9,0.9-5.7S84.6,287.6,84.6,287.6z"></path><path class="st2" d="M100.8,252.9l33.1-0.8c0,0,2.8,7.2-11.4,10.9S97.4,256.7,100.8,252.9z"></path><path class="st3" d="M123.7,356.2c-0.9-7.7-1.6-15.4-2.3-23c-0.7-7.7-1.2-15.4-1.7-23.1s-0.9-15.4-1.3-23.1s-0.6-15.4-0.7-23.1
		c0.9,7.7,1.7,15.4,2.3,23c0.7,7.7,1.2,15.4,1.7,23.1s0.9,15.4,1.3,23.1S123.5,348.4,123.7,356.2z"></path><path class="st2" d="M106.6,284.3c0,0,10.5-1,13,7.9C119.5,292.2,110.6,297,106.6,284.3z"></path><path class="st3" d="M116.1,263.8c0,0-3.2,1.5,0.5,4s5.1-3.8,3.8-4.4S116.1,263.8,116.1,263.8z"></path><path class="st3" d="M149.9,356.3c0,0,3.6-3.7,6.9-4.5s6.2,0.1,6.2-1s-5.6-3.3-9.4-1.3S149.9,356.3,149.9,356.3z"></path><path class="st2" d="M149.8,355.8c0,0,2.1-5.7,9.1-11.1s14.3-13,8.6-14.7s-13,1.5-16.4,8.9S149.8,355.8,149.8,355.8z"></path><path class="st3" d="M162.9,333c-1.2,1.9-2.5,3.6-3.9,5.4l-2,2.6c-0.6,0.9-1.3,1.7-1.9,2.6c-0.6,0.8-1.2,1.7-1.6,2.7
		c-0.5,0.9-0.9,1.9-1.3,2.9c-0.8,2-1.5,4.1-2.4,6.2c0-2.2,0.3-4.5,0.9-6.6c0.3-1.1,0.6-2.2,1.1-3.2c0.5-1.1,1-2.1,1.7-3
		c1.3-1.8,2.8-3.5,4.3-5.1C159.4,335.8,161.1,334.3,162.9,333z"></path></g></svg>